<svg width="916" height="144" viewBox="0 0 916 144" fill="none" xmlns="http://www.w3.org/2000/svg">
<path d="M160 130.871L80 43.1289L0 130.871L1.80575e-06 84.6909L160 84.6909V130.871Z" fill="#094067"/>
<path fill-rule="evenodd" clip-rule="evenodd" d="M82.5807 130.953C112.69 130.953 137.098 106.075 137.098 75.3871C137.098 44.6988 112.69 19.8211 82.5807 19.8211C52.4714 19.8211 28.0631 44.6988 28.0631 75.3871C28.0631 106.075 52.4714 130.953 82.5807 130.953ZM82.5807 143.774C119.637 143.774 149.677 113.156 149.677 75.3871C149.677 37.6179 119.637 7 82.5807 7C45.5241 7 15.4839 37.6179 15.4839 75.3871C15.4839 113.156 45.5241 143.774 82.5807 143.774Z" fill="#094067"/>
<path d="M234.367 9.8125V61H225.508V40.8555C221.711 41.8164 217.75 42.2969 213.625 42.2969C207.508 42.2969 202.879 40.9492 199.738 38.2539C196.598 35.5586 195.016 31.4922 194.992 26.0547V9.8125H203.852V26.125C203.875 29.3828 204.625 31.7031 206.102 33.0859C207.578 34.4688 210.086 35.1602 213.625 35.1602C217.703 35.1602 221.664 34.668 225.508 33.6836V9.8125H234.367ZM274.164 29.7461H261.824V61H253.281V29.7461H241.082V22.9609H274.164V29.7461ZM277.223 41.6289C277.223 37.9023 277.961 34.5508 279.438 31.5742C280.914 28.5742 282.988 26.2773 285.66 24.6836C288.332 23.0664 291.402 22.2578 294.871 22.2578C300.004 22.2578 304.164 23.9102 307.352 27.2148C310.562 30.5195 312.297 34.9023 312.555 40.3633L312.59 42.3672C312.59 46.1172 311.863 49.4688 310.41 52.4219C308.98 55.375 306.918 57.6602 304.223 59.2773C301.551 60.8945 298.457 61.7031 294.941 61.7031C289.574 61.7031 285.273 59.9219 282.039 56.3594C278.828 52.7734 277.223 48.0039 277.223 42.0508V41.6289ZM285.766 42.3672C285.766 46.2812 286.574 49.3516 288.191 51.5781C289.809 53.7812 292.059 54.8828 294.941 54.8828C297.824 54.8828 300.062 53.7578 301.656 51.5078C303.273 49.2578 304.082 45.9648 304.082 41.6289C304.082 37.7852 303.25 34.7383 301.586 32.4883C299.945 30.2383 297.707 29.1133 294.871 29.1133C292.082 29.1133 289.867 30.2266 288.227 32.4531C286.586 34.6562 285.766 37.9609 285.766 42.3672ZM366.555 33.3672C366.555 35.0547 366.039 36.6133 365.008 38.043C364 39.4492 362.57 40.5742 360.719 41.418C365.078 42.9414 367.258 45.8828 367.258 50.2422C367.258 53.7344 365.84 56.5234 363.004 58.6094C360.168 60.6719 356.371 61.7031 351.613 61.7031C348.707 61.7031 346.059 61.2227 343.668 60.2617C341.277 59.2773 339.414 57.8945 338.078 56.1133C336.742 54.3086 336.074 52.1758 336.074 49.7148H344.582C344.582 51.2617 345.273 52.5625 346.656 53.6172C348.039 54.6484 349.785 55.1641 351.895 55.1641C353.98 55.1641 355.633 54.6836 356.852 53.7227C358.094 52.7383 358.715 51.4609 358.715 49.8906C358.715 48.0391 358.176 46.7031 357.098 45.8828C356.02 45.0625 354.355 44.6523 352.105 44.6523H345.988V38.5H352.316C356.137 38.4531 358.047 36.8828 358.047 33.7891C358.047 32.2422 357.496 31.0352 356.395 30.168C355.293 29.3008 353.781 28.8672 351.859 28.8672C349.984 28.8672 348.402 29.3359 347.113 30.2734C345.824 31.1875 345.18 32.3477 345.18 33.7539H336.672C336.672 30.4023 338.078 27.6602 340.891 25.5273C343.703 23.3711 347.277 22.293 351.613 22.293C356.324 22.293 359.992 23.2539 362.617 25.1758C365.242 27.0977 366.555 29.8281 366.555 33.3672ZM397.246 61C396.871 60.2734 396.543 59.0898 396.262 57.4492C393.543 60.2852 390.215 61.7031 386.277 61.7031C382.457 61.7031 379.34 60.6133 376.926 58.4336C374.512 56.2539 373.305 53.5586 373.305 50.3477C373.305 46.293 374.805 43.1875 377.805 41.0312C380.828 38.8516 385.141 37.7617 390.742 37.7617H395.98V35.2656C395.98 33.2969 395.43 31.7266 394.328 30.5547C393.227 29.3594 391.551 28.7617 389.301 28.7617C387.355 28.7617 385.762 29.2539 384.52 30.2383C383.277 31.1992 382.656 32.4297 382.656 33.9297H374.113C374.113 31.8438 374.805 29.8984 376.188 28.0938C377.57 26.2656 379.445 24.8359 381.812 23.8047C384.203 22.7734 386.863 22.2578 389.793 22.2578C394.246 22.2578 397.797 23.3828 400.445 25.6328C403.094 27.8594 404.453 31 404.523 35.0547V52.2109C404.523 55.6328 405.004 58.3633 405.965 60.4023V61H397.246ZM387.859 54.8477C389.547 54.8477 391.129 54.4375 392.605 53.6172C394.105 52.7969 395.23 51.6953 395.98 50.3125V43.1406H391.375C388.211 43.1406 385.832 43.6914 384.238 44.793C382.645 45.8945 381.848 47.4531 381.848 49.4688C381.848 51.1094 382.387 52.4219 383.465 53.4062C384.566 54.3672 386.031 54.8477 387.859 54.8477ZM234.438 126.355C232.586 128.77 230.02 130.598 226.738 131.84C223.457 133.082 219.73 133.703 215.559 133.703C211.27 133.703 207.473 132.73 204.168 130.785C200.863 128.84 198.309 126.062 196.504 122.453C194.723 118.82 193.797 114.59 193.727 109.762V105.754C193.727 98.0195 195.578 91.9844 199.281 87.6484C202.984 83.2891 208.152 81.1094 214.785 81.1094C220.48 81.1094 225.004 82.5156 228.355 85.3281C231.707 88.1406 233.723 92.1953 234.402 97.4922H225.684C224.699 91.3281 221.125 88.2461 214.961 88.2461C210.977 88.2461 207.941 89.6875 205.855 92.5703C203.793 95.4297 202.727 99.6367 202.656 105.191V109.129C202.656 114.66 203.816 118.961 206.137 122.031C208.48 125.078 211.727 126.602 215.875 126.602C220.422 126.602 223.656 125.57 225.578 123.508V113.488H215.031V106.738H234.438V126.355ZM263.301 102.766C262.176 102.578 261.016 102.484 259.82 102.484C255.906 102.484 253.27 103.984 251.91 106.984V133H243.367V94.9609H251.523L251.734 99.2148C253.797 95.9102 256.656 94.2578 260.312 94.2578C261.531 94.2578 262.539 94.4219 263.336 94.75L263.301 102.766ZM290.371 133C289.996 132.273 289.668 131.09 289.387 129.449C286.668 132.285 283.34 133.703 279.402 133.703C275.582 133.703 272.465 132.613 270.051 130.434C267.637 128.254 266.43 125.559 266.43 122.348C266.43 118.293 267.93 115.188 270.93 113.031C273.953 110.852 278.266 109.762 283.867 109.762H289.105V107.266C289.105 105.297 288.555 103.727 287.453 102.555C286.352 101.359 284.676 100.762 282.426 100.762C280.48 100.762 278.887 101.254 277.645 102.238C276.402 103.199 275.781 104.43 275.781 105.93H267.238C267.238 103.844 267.93 101.898 269.312 100.094C270.695 98.2656 272.57 96.8359 274.938 95.8047C277.328 94.7734 279.988 94.2578 282.918 94.2578C287.371 94.2578 290.922 95.3828 293.57 97.6328C296.219 99.8594 297.578 103 297.648 107.055V124.211C297.648 127.633 298.129 130.363 299.09 132.402V133H290.371ZM280.984 126.848C282.672 126.848 284.254 126.438 285.73 125.617C287.23 124.797 288.355 123.695 289.105 122.312V115.141H284.5C281.336 115.141 278.957 115.691 277.363 116.793C275.77 117.895 274.973 119.453 274.973 121.469C274.973 123.109 275.512 124.422 276.59 125.406C277.691 126.367 279.156 126.848 280.984 126.848ZM314.523 94.9609L314.77 99.3555C317.582 95.957 321.273 94.2578 325.844 94.2578C333.766 94.2578 337.797 98.793 337.938 107.863V133H329.395V108.355C329.395 105.941 328.867 104.16 327.812 103.012C326.781 101.84 325.082 101.254 322.715 101.254C319.27 101.254 316.703 102.812 315.016 105.93V133H306.473V94.9609H314.523ZM345.074 113.699C345.074 107.84 346.434 103.141 349.152 99.6016C351.871 96.0391 355.516 94.2578 360.086 94.2578C364.117 94.2578 367.375 95.6641 369.859 98.4766V79H378.402V133H370.668L370.246 129.062C367.691 132.156 364.281 133.703 360.016 133.703C355.562 133.703 351.953 131.91 349.188 128.324C346.445 124.738 345.074 119.863 345.074 113.699ZM353.617 114.438C353.617 118.305 354.355 121.328 355.832 123.508C357.332 125.664 359.453 126.742 362.195 126.742C365.688 126.742 368.242 125.184 369.859 122.066V105.824C368.289 102.777 365.758 101.254 362.266 101.254C359.5 101.254 357.367 102.355 355.867 104.559C354.367 106.738 353.617 110.031 353.617 114.438ZM427.199 116.336C426.684 121.797 424.668 126.062 421.152 129.133C417.637 132.18 412.961 133.703 407.125 133.703C403.047 133.703 399.449 132.742 396.332 130.82C393.238 128.875 390.848 126.121 389.16 122.559C387.473 118.996 386.594 114.859 386.523 110.148V105.367C386.523 100.539 387.379 96.2852 389.09 92.6055C390.801 88.9258 393.25 86.0898 396.438 84.0977C399.648 82.1055 403.352 81.1094 407.547 81.1094C413.195 81.1094 417.742 82.6445 421.188 85.7148C424.633 88.7852 426.637 93.1211 427.199 98.7227H418.34C417.918 95.043 416.84 92.3945 415.105 90.7773C413.395 89.1367 410.875 88.3164 407.547 88.3164C403.68 88.3164 400.703 89.7344 398.617 92.5703C396.555 95.3828 395.5 99.5195 395.453 104.98V109.516C395.453 115.047 396.438 119.266 398.406 122.172C400.398 125.078 403.305 126.531 407.125 126.531C410.617 126.531 413.242 125.746 415 124.176C416.758 122.605 417.871 119.992 418.34 116.336H427.199ZM432.754 113.629C432.754 109.902 433.492 106.551 434.969 103.574C436.445 100.574 438.52 98.2773 441.191 96.6836C443.863 95.0664 446.934 94.2578 450.402 94.2578C455.535 94.2578 459.695 95.9102 462.883 99.2148C466.094 102.52 467.828 106.902 468.086 112.363L468.121 114.367C468.121 118.117 467.395 121.469 465.941 124.422C464.512 127.375 462.449 129.66 459.754 131.277C457.082 132.895 453.988 133.703 450.473 133.703C445.105 133.703 440.805 131.922 437.57 128.359C434.359 124.773 432.754 120.004 432.754 114.051V113.629ZM441.297 114.367C441.297 118.281 442.105 121.352 443.723 123.578C445.34 125.781 447.59 126.883 450.473 126.883C453.355 126.883 455.594 125.758 457.188 123.508C458.805 121.258 459.613 117.965 459.613 113.629C459.613 109.785 458.781 106.738 457.117 104.488C455.477 102.238 453.238 101.113 450.402 101.113C447.613 101.113 445.398 102.227 443.758 104.453C442.117 106.656 441.297 109.961 441.297 114.367ZM495.262 102.766C494.137 102.578 492.977 102.484 491.781 102.484C487.867 102.484 485.23 103.984 483.871 106.984V133H475.328V94.9609H483.484L483.695 99.2148C485.758 95.9102 488.617 94.2578 492.273 94.2578C493.492 94.2578 494.5 94.4219 495.297 94.75L495.262 102.766ZM516.707 133.703C511.293 133.703 506.898 132.004 503.523 128.605C500.172 125.184 498.496 120.637 498.496 114.965V113.91C498.496 110.113 499.223 106.727 500.676 103.75C502.152 100.75 504.215 98.418 506.863 96.7539C509.512 95.0898 512.465 94.2578 515.723 94.2578C520.902 94.2578 524.898 95.9102 527.711 99.2148C530.547 102.52 531.965 107.195 531.965 113.242V116.688H507.109C507.367 119.828 508.41 122.312 510.238 124.141C512.09 125.969 514.41 126.883 517.199 126.883C521.113 126.883 524.301 125.301 526.762 122.137L531.367 126.531C529.844 128.805 527.805 130.574 525.25 131.84C522.719 133.082 519.871 133.703 516.707 133.703ZM515.688 101.113C513.344 101.113 511.445 101.934 509.992 103.574C508.562 105.215 507.648 107.5 507.25 110.43H523.527V109.797C523.34 106.938 522.578 104.781 521.242 103.328C519.906 101.852 518.055 101.113 515.688 101.113ZM586.879 111.309H566.277V133H557.383V81.8125H589.902V88.9844H566.277V104.207H586.879V111.309ZM593.77 113.629C593.77 109.902 594.508 106.551 595.984 103.574C597.461 100.574 599.535 98.2773 602.207 96.6836C604.879 95.0664 607.949 94.2578 611.418 94.2578C616.551 94.2578 620.711 95.9102 623.898 99.2148C627.109 102.52 628.844 106.902 629.102 112.363L629.137 114.367C629.137 118.117 628.41 121.469 626.957 124.422C625.527 127.375 623.465 129.66 620.77 131.277C618.098 132.895 615.004 133.703 611.488 133.703C606.121 133.703 601.82 131.922 598.586 128.359C595.375 124.773 593.77 120.004 593.77 114.051V113.629ZM602.312 114.367C602.312 118.281 603.121 121.352 604.738 123.578C606.355 125.781 608.605 126.883 611.488 126.883C614.371 126.883 616.609 125.758 618.203 123.508C619.82 121.258 620.629 117.965 620.629 113.629C620.629 109.785 619.797 106.738 618.133 104.488C616.492 102.238 614.254 101.113 611.418 101.113C608.629 101.113 606.414 102.227 604.773 104.453C603.133 106.656 602.312 109.961 602.312 114.367ZM659.406 129.273C656.898 132.227 653.336 133.703 648.719 133.703C644.594 133.703 641.465 132.496 639.332 130.082C637.223 127.668 636.168 124.176 636.168 119.605V94.9609H644.711V119.5C644.711 124.328 646.715 126.742 650.723 126.742C654.871 126.742 657.672 125.254 659.125 122.277V94.9609H667.668V133H659.617L659.406 129.273ZM684.297 94.9609L684.543 99.3555C687.355 95.957 691.047 94.2578 695.617 94.2578C703.539 94.2578 707.57 98.793 707.711 107.863V133H699.168V108.355C699.168 105.941 698.641 104.16 697.586 103.012C696.555 101.84 694.855 101.254 692.488 101.254C689.043 101.254 686.477 102.812 684.789 105.93V133H676.246V94.9609H684.297ZM714.848 113.699C714.848 107.84 716.207 103.141 718.926 99.6016C721.645 96.0391 725.289 94.2578 729.859 94.2578C733.891 94.2578 737.148 95.6641 739.633 98.4766V79H748.176V133H740.441L740.02 129.062C737.465 132.156 734.055 133.703 729.789 133.703C725.336 133.703 721.727 131.91 718.961 128.324C716.219 124.738 714.848 119.863 714.848 113.699ZM723.391 114.438C723.391 118.305 724.129 121.328 725.605 123.508C727.105 125.664 729.227 126.742 731.969 126.742C735.461 126.742 738.016 125.184 739.633 122.066V105.824C738.062 102.777 735.531 101.254 732.039 101.254C729.273 101.254 727.141 102.355 725.641 104.559C724.141 106.738 723.391 110.031 723.391 114.438ZM779.816 133C779.441 132.273 779.113 131.09 778.832 129.449C776.113 132.285 772.785 133.703 768.848 133.703C765.027 133.703 761.91 132.613 759.496 130.434C757.082 128.254 755.875 125.559 755.875 122.348C755.875 118.293 757.375 115.188 760.375 113.031C763.398 110.852 767.711 109.762 773.312 109.762H778.551V107.266C778.551 105.297 778 103.727 776.898 102.555C775.797 101.359 774.121 100.762 771.871 100.762C769.926 100.762 768.332 101.254 767.09 102.238C765.848 103.199 765.227 104.43 765.227 105.93H756.684C756.684 103.844 757.375 101.898 758.758 100.094C760.141 98.2656 762.016 96.8359 764.383 95.8047C766.773 94.7734 769.434 94.2578 772.363 94.2578C776.816 94.2578 780.367 95.3828 783.016 97.6328C785.664 99.8594 787.023 103 787.094 107.055V124.211C787.094 127.633 787.574 130.363 788.535 132.402V133H779.816ZM770.43 126.848C772.117 126.848 773.699 126.438 775.176 125.617C776.676 124.797 777.801 123.695 778.551 122.312V115.141H773.945C770.781 115.141 768.402 115.691 766.809 116.793C765.215 117.895 764.418 119.453 764.418 121.469C764.418 123.109 764.957 124.422 766.035 125.406C767.137 126.367 768.602 126.848 770.43 126.848ZM806.746 85.7148V94.9609H813.461V101.289H806.746V122.523C806.746 123.977 807.027 125.031 807.59 125.688C808.176 126.32 809.207 126.637 810.684 126.637C811.668 126.637 812.664 126.52 813.672 126.285V132.895C811.727 133.434 809.852 133.703 808.047 133.703C801.484 133.703 798.203 130.082 798.203 122.84V101.289H791.945V94.9609H798.203V85.7148H806.746ZM829.105 133H820.562V94.9609H829.105V133ZM820.035 85.082C820.035 83.7695 820.445 82.6797 821.266 81.8125C822.109 80.9453 823.305 80.5117 824.852 80.5117C826.398 80.5117 827.594 80.9453 828.438 81.8125C829.281 82.6797 829.703 83.7695 829.703 85.082C829.703 86.3711 829.281 87.4492 828.438 88.3164C827.594 89.1602 826.398 89.582 824.852 89.582C823.305 89.582 822.109 89.1602 821.266 88.3164C820.445 87.4492 820.035 86.3711 820.035 85.082ZM836.84 113.629C836.84 109.902 837.578 106.551 839.055 103.574C840.531 100.574 842.605 98.2773 845.277 96.6836C847.949 95.0664 851.02 94.2578 854.488 94.2578C859.621 94.2578 863.781 95.9102 866.969 99.2148C870.18 102.52 871.914 106.902 872.172 112.363L872.207 114.367C872.207 118.117 871.48 121.469 870.027 124.422C868.598 127.375 866.535 129.66 863.84 131.277C861.168 132.895 858.074 133.703 854.559 133.703C849.191 133.703 844.891 131.922 841.656 128.359C838.445 124.773 836.84 120.004 836.84 114.051V113.629ZM845.383 114.367C845.383 118.281 846.191 121.352 847.809 123.578C849.426 125.781 851.676 126.883 854.559 126.883C857.441 126.883 859.68 125.758 861.273 123.508C862.891 121.258 863.699 117.965 863.699 113.629C863.699 109.785 862.867 106.738 861.203 104.488C859.562 102.238 857.324 101.113 854.488 101.113C851.699 101.113 849.484 102.227 847.844 104.453C846.203 106.656 845.383 109.961 845.383 114.367ZM887.359 94.9609L887.605 99.3555C890.418 95.957 894.109 94.2578 898.68 94.2578C906.602 94.2578 910.633 98.793 910.773 107.863V133H902.23V108.355C902.23 105.941 901.703 104.16 900.648 103.012C899.617 101.84 897.918 101.254 895.551 101.254C892.105 101.254 889.539 102.812 887.852 105.93V133H879.309V94.9609H887.359Z" fill="#094067"/>
</svg>
